HIERARCHY
ROOT ui
{
	 OFFSET 0 0 0
	 CHANNELS 3 XPosition YPosition Z Position
	 EndSite
	 {
	 OFFSET 0 -1 0
	 }
}
ROOT li
{
	 OFFSET 0 0 0
	 CHANNELS 3 XPosition YPosition Z Position
	 EndSite
	 {
	 OFFSET 0 -1 0
	 }
}
ROOT ul
{
	 OFFSET 0 0 0
	 CHANNELS 3 XPosition YPosition Z Position
	 EndSite
	 {
	 OFFSET 0 -1 0
	 }
}
ROOT ll
{
	 OFFSET 0 0 0
	 CHANNELS 3 XPosition YPosition Z Position
	 EndSite
	 {
	 OFFSET 0 -1 0
	 }
}
ROOT tt
{
	 OFFSET 0 0 0
	 CHANNELS 3 XPosition YPosition Z Position
	 EndSite
	 {
	 OFFSET 0 -1 0
	 }
}
ROOT tb
{
	 OFFSET 0 0 0
	 CHANNELS 3 XPosition YPosition Z Position
	 EndSite
	 {
	 OFFSET 0 -1 0
	 }
}
ROOT td
{
	 OFFSET 0 0 0
	 CHANNELS 3 XPosition YPosition Z Position
	 EndSite
	 {
	 OFFSET 0 -1 0
	 }
}
ROOT v
{
	 OFFSET 0 0 0
	 CHANNELS 3 XPosition YPosition Z Position
	 EndSite
	 {
	 OFFSET 0 -1 0
	 }
}
ROOT bn
{
	 OFFSET 0 0 0
	 CHANNELS 3 XPosition YPosition Z Position
	 EndSite
	 {
	 OFFSET 0 -1 0
	 }
}
MOTION
Frames: 18
Frame Time: 0.002
-3.0778300762176515E-4	-4.340879917144775E-4	0		0.5081995849609375	-2.371497314453125	0		-1.064302734375	-0.16609278869628907	0		-0.8600332641601562	-2.38361376953125	0		1.4336859130859374	-0.5261174926757812	0		3.175675537109375	-0.020307050704956055	0		4.6751884765625	0.10129252624511718	0		5.60125341796875	0.1015413818359375	0		-0.21264178466796874	5.9154296875	0		
0.015988874435424804	-0.004252110004425049	0		0.5383504638671875	-2.369525634765625	0		-1.061949951171875	-0.16365093994140625	0		-0.91787744140625	-2.38048828125	0		1.410984375	-0.5256094970703125	0		3.177217041015625	-0.003239005088806152	0		4.6706826171875	0.1132951431274414	0		5.60468896484375	0.10836676025390625	0		-0.16358856201171876	5.93025537109375	0		
0.022418258666992187	0.0020464780330657958	0		0.5145639038085937	-2.362921630859375	0		-1.0645228271484375	-0.15614691162109376	0		-0.8536947021484375	-2.37678759765625	0		1.4413994140625	-0.5167227172851563	0		3.168435302734375	-0.015053686141967773	0		4.6799814453125	0.10713011169433594	0		5.6089521484375	0.09917479705810547	0		-0.180787353515625	5.9218544921875	0		
0.0017804540395736695	6.732959747314453E-4	0		0.5526676635742187	-2.368041259765625	0		-1.072235595703125	-0.16257377624511718	0		-0.8945629272460938	-2.378841796875	0		1.3957034912109374	-0.5189298706054688	0		3.162889892578125	-0.00889652156829834	0		4.6683642578125	0.10621935272216797	0		5.58935888671875	0.10027310180664062	0		-0.18086744689941406	5.92126220703125	0		
0.0042321691513061525	0.004041625022888184	0		0.533783935546875	-2.37447119140625	0		-1.0728465576171875	-0.16307073974609376	0		-0.8614274291992188	-2.383761962890625	0		1.4309495849609375	-0.5290836791992187	0		3.174220458984375	-0.015925116539001465	0		4.67877734375	0.10506425476074219	0		5.59466357421875	0.09009408569335937	0		-0.1819084930419922	5.9216953125	0		
6.245579719543457E-4	-4.987899959087372E-4	0		0.533010009765625	-2.375095703125	0		-1.0703851318359374	-0.16058700561523437	0		-0.9351485595703125	-2.37938037109375	0		1.391405029296875	-0.5243189086914063	0		3.156817138671875	-0.0035835208892822266	0		4.67620263671875	0.10209035491943359	0		5.5981962890625	0.09596458435058594	0		-0.2160046844482422	5.9155458984375	0		
0.0031527750492095948	0.002911351919174194	0		0.5093681640625	-2.36841650390625	0		-1.0609322509765624	-0.16216755676269531	0		-0.8588832397460937	-2.380787109375	0		1.39981396484375	-0.5271033325195312	0		3.166125732421875	-0.01853416633605957	0		4.68178857421875	0.10905333709716797	0		5.59180615234375	0.10499234771728516	0		-0.2018607635498047	5.9268408203125	0		
0.002675766944885254	0.002385796070098877	0		0.5107271423339844	-2.366009521484375	0		-1.067373779296875	-0.15852996826171875	0		-0.9304708862304687	-2.373371337890625	0		1.3964024658203125	-0.5187109985351562	0		3.16073291015625	-0.012266616821289062	0		4.6813203125	0.10813200378417968	0		5.5931298828125	0.0869708251953125	0		-0.1828992614746094	5.9211005859375	0		
0.0022440719604492187	0.0018918360471725463	0		0.5599777221679687	-2.37715966796875	0		-1.0777930908203126	-0.15681472778320313	0		-0.8721229858398437	-2.376516845703125	0		1.389843017578125	-0.5262427368164062	0		3.19719873046875	-0.02147007942199707	0		4.67682373046875	0.10131105041503906	0		5.5968154296875	0.09497675323486328	0		-0.14977064514160157	5.92721435546875	0		
0.0018595540523529052	0.001432716965675354	0		0.5235523681640625	-2.366215576171875	0		-1.0722520751953124	-0.16226612854003905	0		-0.8726874389648438	-2.376909912109375	0		1.4314029541015625	-0.5283273315429687	0		3.15991455078125	-0.013712894439697266	0		4.67644677734375	0.100498291015625	0		5.5864384765625	0.09421835327148438	0		-0.18277874755859375	5.92117626953125	0		
0.0015235090255737306	0.0010112030506134032	0		0.5299124755859375	-2.37776025390625	0		-1.072599609375	-0.16261225891113282	0		-0.8632784423828125	-2.38439404296875	0		1.3920950927734375	-0.5233634033203125	0		3.17040185546875	-0.02849207305908203	0		4.6740927734375	0.09777379608154296	0		5.59608349609375	0.0912804183959961	0		-0.1524398956298828	5.94139208984375	0		
0.0012367639541625976	6.296949982643128E-4	0		0.5085996704101563	-2.367913330078125	0		-1.1428411865234376	-0.15804789733886718	0		-0.894615966796875	-2.376332275390625	0		1.3948118896484376	-0.5208721923828125	0		3.1793505859375	-0.010191700935363769	0		4.6778994140625	0.10404102325439453	0		5.59990234375	0.09848824310302734	0		-0.15136961364746093	5.9390078125	0		
0.008074617385864258	0.006201653003692627	0		0.5542836303710937	-2.36386181640625	0		-1.0691060791015625	-0.1602520294189453	0		-0.8659059448242188	-2.36998486328125	0		1.397594482421875	-0.5173310546875	0		3.159051513671875	-0.015464436531066895	0		4.67968115234375	0.10440343475341797	0		5.58969677734375	0.09994783782958984	0		-0.169346923828125	5.931904296875	0		
8.117160201072692E-4	-5.632999818772077E-6	0		0.49698892211914064	-2.36246630859375	0		-1.081175048828125	-0.1503408966064453	0		-0.8722935791015625	-2.3761591796875	0		1.4332628173828126	-0.5271544799804687	0		3.15886279296875	-0.01592593193054199	0		4.6754228515625	0.09791323852539062	0		5.59129931640625	0.08233495330810547	0		-0.20230963134765625	5.92503515625	0		
6.716210246086121E-4	-2.570469975471497E-4	0		0.5486328125	-2.37139990234375	0		-1.08535986328125	-0.15349078369140626	0		-0.8745698852539062	-2.37834423828125	0		1.3880762939453124	-0.5289017333984375	0		3.1636328125	-0.023387731552124022	0		4.6642880859375	0.0975830307006836	0		5.58527734375	0.0908978042602539	0		-0.15015177917480468	5.92613330078125	0		
5.77347993850708E-4	-4.63485985994339E-4	0		0.4945089111328125	-2.36594189453125	0		-1.0735887451171875	-0.163804443359375	0		-0.8747620239257813	-2.3785146484375	0		1.429944091796875	-0.5306998291015625	0		3.16971533203125	-0.009801891326904297	0		4.673171875	0.09507019805908203	0		5.59516064453125	0.0883343276977539	0		-0.1878717041015625	5.936416015625	0		
5.265989899635315E-4	-6.244670152664184E-4	0		0.5322681274414063	-2.37460498046875	0		-1.1435885009765625	-0.15903375244140625	0		-0.93386767578125	-2.375891357421875	0		1.3939794921875	-0.5224531860351562	0		3.16348583984375	-0.023998750686645507	0		4.68330224609375	0.10861293792724609	0		5.59511328125	0.08797279357910157	0		-0.16877499389648437	5.93101953125	0		
0.00455491590499878	0.00220913290977478	0		0.49835452270507813	-2.361302490234375	0		-1.0755576171875	-0.1559839324951172	0		-0.8689046020507812	-2.3728095703125	0		1.4359373779296876	-0.5241483154296875	0		3.174564208984375	-0.017352294921875	0		4.67514306640625	0.09645732116699218	0		5.58435009765625	0.10682498931884765	0		-0.2026763458251953	5.925345703125	0		
